<?xml version="1.0" standalone="no"?>
<!DOCTYPE svg PUBLIC "-//W3C//DTD SVG 20010904//EN"
 "http://www.w3.org/TR/2001/REC-SVG-20010904/DTD/svg10.dtd">
<svg version="1.0" xmlns="http://www.w3.org/2000/svg"
 width="512.000000pt" height="512.000000pt" viewBox="0 0 512.000000 512.000000"
 preserveAspectRatio="xMidYMid meet">
<metadata>
Created by potrace 1.14, written by Peter Selinger 2001-2017
</metadata>
<g transform="translate(0.000000,512.000000) scale(0.100000,-0.100000)"
fill="#000000" stroke="none">
<path d="M865 5114 c-123 -16 -229 -46 -330 -97 -263 -130 -443 -361 -512
-655 -17 -73 -18 -172 -18 -1797 0 -1401 2 -1732 13 -1785 80 -383 357 -667
740 -757 73 -17 172 -18 1802 -18 1630 0 1729 1 1802 18 383 90 660 374 740
757 19 96 19 3464 0 3560 -79 380 -342 652 -732 757 -61 16 -180 17 -1770 19
-938 1 -1718 0 -1735 -2z m2040 -608 c406 -59 777 -211 1090 -446 98 -74 282
-243 316 -291 l21 -29 -392 -490 -392 -490 -988 0 -988 0 -392 490 -392 490
21 29 c34 48 218 217 316 291 359 270 770 421 1265 464 87 8 416 -4 515 -18z"/>
<path d="M2955 3543 c-209 -316 -382 -579 -383 -584 -2 -6 95 -8 249 -7 l253
3 132 580 c73 319 132 581 131 582 -1 1 -173 -257 -382 -574z"/>
</g>
</svg>
